<svg xmlns="http://www.w3.org/2000/svg" viewBox="0 0 256 256" fill="none">
  <rect width="256" height="256" rx="128" fill="#0A0A0A"/>
  <path d="M56 147c15-22 31-33 48-33 29 0 37 34 64 34 13 0 24-7 32-20" stroke="#F7F7F2" stroke-width="10" stroke-linecap="round" stroke-linejoin="round"/>
  <path d="M56 179c15-22 31-33 48-33 29 0 37 34 64 34 13 0 24-7 32-20" stroke="#F7F7F2" stroke-width="10" stroke-linecap="round" stroke-linejoin="round" opacity=".72"/>
  <path d="M91 82c12-12 26-18 42-18 25 0 45 16 55 42" stroke="#F7F7F2" stroke-width="10" stroke-linecap="round"/>
  <circle cx="128" cy="128" r="108" stroke="#F7F7F2" stroke-width="6" opacity=".22"/>
</svg>
