<svg xmlns="http://www.w3.org/2000/svg" viewBox="0 0 256 256" fill="none">
  <rect width="256" height="256" rx="128" fill="#0A0A0A"/>
  <path d="M128 51c-11 20 7 35-8 56-8 11-20 22-20 42 0 29 20 51 47 51 26 0 46-21 46-50 0-23-13-39-27-53-10-10-16-21-17-40-8 8-13 16-15 26-2-11-3-21-6-32Z" stroke="#F7F7F2" stroke-width="10" stroke-linecap="round" stroke-linejoin="round"/>
  <path d="M127 112c-7 12-16 20-16 34 0 12 8 22 18 22 9 0 17-9 17-20 0-9-5-16-11-23" stroke="#F7F7F2" stroke-width="8" stroke-linecap="round" stroke-linejoin="round" opacity=".78"/>
  <circle cx="128" cy="128" r="108" stroke="#F7F7F2" stroke-width="6" opacity=".22"/>
</svg>
